<svg width="31" height="28" viewBox="0 0 31 28" fill="none" xmlns="http://www.w3.org/2000/svg">
    <path fill-rule="evenodd" clip-rule="evenodd" d="M15.1982 28L20.795 10.7749H9.60181L15.1983 28H15.1982Z" fill="#E24329"/>
    <path fill-rule="evenodd" clip-rule="evenodd" d="M15.1982 28L9.60145 10.7749H1.75757L15.1984 27.9998L15.1982 28Z" fill="#FC6D26"/>
    <path fill-rule="evenodd" clip-rule="evenodd" d="M1.75768 10.7749L0.0567515 16.0093C-0.0982828 16.4869 0.0715637 17.01 0.477829 17.3049L15.1983 28L1.75768 10.7748V10.7749Z" fill="#FCA326"/>
    <path fill-rule="evenodd" clip-rule="evenodd" d="M1.75765 10.7749H9.60153L6.23044 0.400361C6.05705 -0.133454 5.30188 -0.133454 5.12858 0.400361L1.75757 10.7749H1.75765Z" fill="#E24329"/>
    <path fill-rule="evenodd" clip-rule="evenodd" d="M15.1982 28L20.795 10.7749H28.6389L15.1984 27.9998L15.1982 28Z" fill="#FC6D26"/>
    <path fill-rule="evenodd" clip-rule="evenodd" d="M28.6388 10.7749L30.3398 16.0093C30.4948 16.4869 30.3249 17.01 29.9187 17.3049L15.1982 28L28.6388 10.7748V10.7749Z" fill="#FCA326"/>
    <path fill-rule="evenodd" clip-rule="evenodd" d="M28.6388 10.7749H20.7949L24.166 0.400361C24.3395 -0.133454 25.0947 -0.133454 25.268 0.400361L28.6389 10.7749H28.6388Z" fill="#E24329"/>
</svg>
