<svg xmlns="http://www.w3.org/2000/svg" width="163" height="20" viewBox="0 0 108 14" fill="none" class="a-logo__svg -main" data-v-96388eea=""><path d="M11.3487 13.9787H14.4901L8.63146 0H5.85863L0 13.9787H3.06532L4.31719 10.8664L5.39064 8.16982L7.20702 3.66766L9.0234 8.16982L10.0968 10.8664L11.3487 13.9787Z" fill="#FE5E55" class="a-logo__letter -a" data-v-96388eea=""></path> <path d="M30.0333 13.9787L27.0849 9.50325H24.707V13.9579H21.6768V0H27.9683C29.6062 0 30.8815 0.405868 31.7941 1.2176C32.7067 2.02934 33.162 3.15884 33.16 4.60611V4.64471C33.2061 5.6384 32.9184 6.61851 32.344 7.42441C31.7946 8.14242 31.0549 8.68638 30.2117 8.99245L33.5724 13.9579L30.0333 13.9787ZM30.0918 4.77241C30.11 4.49234 30.0628 4.21186 29.954 3.95383C29.8453 3.69579 29.678 3.46749 29.4658 3.28753C28.954 2.92265 28.335 2.74564 27.7109 2.78564H24.7099V6.80373H27.7869C28.4062 6.84489 29.0187 6.65241 29.5068 6.26323C29.7051 6.08411 29.8617 5.86252 29.9654 5.61447C30.0691 5.36641 30.1172 5.09808 30.1064 4.82884L30.0918 4.77241Z" fill="#FE5E55" class="a-logo__letter -r" data-v-96388eea=""></path> <path d="M50.7211 13.9876L44.0581 5.108V13.9876H41.0688V0H43.8739L50.3087 8.61232V0.0178186H53.295V13.9965L50.7211 13.9876Z" fill="#FE5E55" class="a-logo__letter -n" data-v-96388eea=""></path> <path d="M62.1636 13.9727V0.0267029H72.5061V2.75592H65.147V5.58313H71.6111V8.31532H65.147V11.2435H72.6026V13.9579L62.1636 13.9727Z" fill="#FE5E55" class="a-logo__letter -e" data-v-96388eea=""></path> <path d="M93.1469 9.72005C92.7992 10.5594 92.2919 11.3209 91.654 11.9609C91.0161 12.601 90.2601 13.107 89.4294 13.4501C88.5238 13.8224 87.5546 14.0091 86.5776 13.9995C85.6061 14.011 84.6423 13.8242 83.7433 13.4501C82.9125 13.1033 82.1542 12.5994 81.5087 11.9652C80.8801 11.3392 80.3826 10.5907 80.0462 9.7646C79.6939 8.90471 79.5158 7.98155 79.5227 7.05023V7.01163C79.5158 6.07944 79.697 5.15569 80.055 4.29726C80.4043 3.45698 80.9136 2.69497 81.5535 2.05489C82.1934 1.41482 82.9515 0.909277 83.7843 0.567238C85.6087 -0.166415 87.64 -0.166415 89.4645 0.567238C90.2948 0.914958 91.0529 1.41875 91.6991 2.05212C92.3276 2.67931 92.825 3.42878 93.1616 4.25569C93.5131 5.11583 93.6911 6.03882 93.6851 6.97005V7.00866C93.6897 7.94026 93.5066 8.86298 93.1469 9.72005ZM90.6169 7.00569C90.621 6.44358 90.5218 5.88562 90.3244 5.36044C90.14 4.8607 89.8608 4.40261 89.5025 4.01217C89.1264 3.60961 88.6725 3.29025 88.1692 3.07409C87.6659 2.85793 87.124 2.74962 86.5776 2.75595C86.0189 2.74768 85.4648 2.85899 84.9513 3.08263C84.4754 3.29225 84.0487 3.60199 83.6994 3.99138C83.3486 4.38704 83.0747 4.84653 82.8922 5.34559C82.6947 5.86663 82.5955 6.4207 82.5997 6.97896V7.01757C82.5953 7.57777 82.6945 8.13383 82.8922 8.65688C83.0792 9.15823 83.3621 9.61707 83.7246 10.007C84.087 10.3969 84.5218 10.7101 85.004 10.9287C85.5153 11.1604 86.0703 11.2759 86.6302 11.2673C87.1861 11.2731 87.7371 11.1608 88.2477 10.9377C88.7265 10.7353 89.1573 10.4316 89.5113 10.0467C89.8649 9.65494 90.1436 9.19974 90.3332 8.70439C90.5306 8.18336 90.6298 7.62928 90.6257 7.07102L90.6169 7.00569Z" fill="#FE5E55" class="a-logo__letter -o" data-v-96388eea=""></path> <path d="M108 11.2257H98.5845V13.946H108V11.2257Z" fill="#FE5E55" class="a-logo__letter -underscore" data-v-96388eea=""></path></svg>
