<svg viewBox="0 0 20 20" xmlns="http://www.w3.org/2000/svg"><path d="M9.383.022c-1.42.11-2.619.432-3.8 1.02A10.064 10.064 0 0 0 .22 7.933C.053 8.708.019 9.057.019 10c0 .943.034 1.292.201 2.067a10.063 10.063 0 0 0 5.334 6.877 10.2 10.2 0 0 0 3.163.978c.565.083 2.001.083 2.566 0 2.23-.329 4.106-1.244 5.679-2.771a9.99 9.99 0 0 0 3.026-6.681l.022-.47h-2.001l-.023.392c-.118 1.993-.888 3.752-2.263 5.165a7.487 7.487 0 0 1-2.173 1.595 7.878 7.878 0 0 1-7.1 0 7.422 7.422 0 0 1-2.174-1.596 7.974 7.974 0 0 1-2.196-4.439c-.084-.556-.084-1.678 0-2.234A8.085 8.085 0 0 1 3.625 5.19c.323-.437 1.128-1.242 1.565-1.565.909-.674 1.81-1.107 2.86-1.374.71-.181 1.135-.231 1.967-.231.794.001 1.223.046 1.848.198l.349.084.798-.798.798-.798L13.48.6C12.109.158 10.516-.067 9.383.022M13.317 6.9l-4.3 4.3-1.55-1.55L5.916 8.1l-.699.7-.7.7 2.25 2.25L9.017 14l5-5 5-5-.7-.7-.7-.7-4.3 4.3" fill-rule="evenodd"/></svg>