<svg viewBox="0 0 24 24" xmlns="http://www.w3.org/2000/svg"><path d="M14.695 3.057a1.04 1.04 0 0 0-.567.459c-.091.156-.108.23-.108.484 0 .256.016.328.111.489.061.103.173.236.25.294.269.206.335.213 1.819.215L17.579 5l-2.705 2.71c-1.488 1.49-2.739 2.773-2.779 2.85-.052.099-.074.228-.074.44-.001.258.015.327.112.492.13.222.369.409.603.473.202.054.53.024.709-.066.074-.037 1.354-1.284 2.843-2.771l2.708-2.703.012 1.441.012 1.44.121.197a.998.998 0 0 0 1.718 0l.121-.197V3.7l-.108-.184a1.051 1.051 0 0 0-.556-.458c-.23-.081-5.362-.082-5.621-.001m-7.946.988a4.63 4.63 0 0 0-.597.097c-.941.244-1.767 1.066-2.011 2.001-.138.525-.146.904-.132 6.117l.014 5.16.089.336c.176.659.534 1.213 1.03 1.594a2.86 2.86 0 0 0 1.123.539l.355.091h5.36c5.084 0 5.377-.004 5.68-.074.609-.142 1.051-.38 1.458-.788.408-.407.646-.849.788-1.458.066-.287.074-.507.074-2.14V13.7l-.109-.186a1.01 1.01 0 0 0-1.742 0l-.109.186-.025 1.76c-.016 1.2-.04 1.809-.073 1.914-.061.195-.342.479-.546.551-.232.082-10.52.082-10.752 0-.215-.076-.487-.358-.552-.571-.077-.256-.077-10.452 0-10.708.066-.216.345-.503.554-.568.105-.033.714-.057 1.914-.073l1.76-.025.192-.113c.756-.444.631-1.561-.202-1.812-.142-.043-.515-.054-1.686-.05-.827.003-1.662.021-1.855.04" fill-rule="evenodd"/></svg>