<svg version="1.1" id="Calque_1" xmlns="http://www.w3.org/2000/svg" x="0" y="0" viewBox="0 0 16 17" style="enable-background:new 0 0 16 17" xml:space="preserve">
  <path d="M4.3 15c-.8 0-1.5-.3-2-.8s-.8-1.2-.8-2 .3-1.5.8-2c1-1 2.7-1.1 3.8-.2h6.2c1.2 0 2.2 1 2.2 2.2 0 1.2-1 2.2-2.2 2.2H6.2c-.6.4-1.2.6-1.9.6zm0-4.7c-.5 0-1 .2-1.3.5-.3.3-.5.8-.5 1.3s.2 1 .5 1.3c.7.7 1.8.7 2.6 0 .3-.3.5-.8.5-1.3s-.2-.9-.5-1.3c-.3-.3-.8-.5-1.3-.5zm2.6 3h5.4c.6 0 1.2-.5 1.2-1.2 0-.6-.5-1.2-1.2-1.2H6.9c.2.4.2.8.2 1.2.1.5 0 .9-.2 1.2zm4.8-5.6c-.7 0-1.3-.3-1.9-.7H3.7C2.5 7 1.5 6 1.5 4.8s1-2.2 2.2-2.2h6.2c1.1-.9 2.8-.8 3.8.2.5.5.8 1.2.8 2s-.3 1.5-.8 2-1.3.9-2 .9zm-1.3-1.5c.7.7 1.9.6 2.6 0 .7-.7.7-1.9 0-2.6-.7-.7-1.9-.7-2.6 0-.4.3-.6.7-.6 1.2s.2 1 .6 1.4c0-.1 0-.1 0 0zM3.7 3.7c-.7 0-1.2.5-1.2 1.1C2.5 5.5 3 6 3.7 6h5.4c-.2-.4-.3-.8-.3-1.2s.1-.8.3-1.1H3.7z"/>
</svg>
