<svg xmlns="http://www.w3.org/2000/svg" viewBox="0 0 490 490"><path d="M153.533.786C111.88 5.357 75.476 23.261 46.914 53.222 23 78.305 8.484 107.492 1.896 143.733c-2.195 12.076-1.999 43.83.346 56.015 3.467 18.016 8.823 34.06 16.199 48.519 27.393 53.696 80.569 88.82 140.965 93.109 39.083 2.776 80.701-9.193 111.727-32.131l6.125-4.528 20.549 20.493 20.549 20.492-1.884 2.937c-4.01 6.247-4.524 12.356-1.545 18.334.704 1.413 28.346 29.672 61.428 62.798L436.504 490H445.503l22.248-22.26C486.989 448.494 490 445.149 490 443.029c0-2.159-7.343-9.79-61.454-63.867-42.981-42.953-62.367-61.792-64.491-62.671-4.942-2.047-10.397-1.622-15.825 1.233l-4.735 2.492-20.316-20.316-20.315-20.315 5.335-7.073c23.701-31.425 36-73.355 33.177-113.106-4.318-60.802-40.228-114.706-94.2-141.405-15.961-7.896-31.669-12.958-49.554-15.97-8.939-1.505-35.01-2.242-44.089-1.245m31.678 36.015c46.469 5.083 86.156 32.986 106.827 75.106 8.498 17.317 12.501 33.785 13.162 54.151.475 14.654-.296 23.36-3.184 35.947-8.97 39.098-37.209 73.85-73.758 90.766-19.638 9.09-36.511 12.814-57.95 12.788-51.254-.059-97.258-28.767-120.474-75.176-12.895-25.78-17.062-58.975-10.98-87.466C53.275 75.365 116.787 29.316 185.211 36.801" fill-rule="evenodd"/></svg>