<svg version="1.1" id="Calque_1" xmlns="http://www.w3.org/2000/svg" x="0" y="0" viewBox="0 0 24 24" style="enable-background:new 0 0 24 24" xml:space="preserve">
  <path d="M16.5 21.7c-.8 0-1.7-.3-2.3-1-.4-.4-.7-1-.9-1.5H3c-.4 0-.8-.3-.8-.8s.3-.8.8-.8h10.3c.1-.6.4-1.1.9-1.5a3.2 3.2 0 0 1 4.6 0 3.2 3.2 0 0 1 0 4.6c-.6.7-1.5 1-2.3 1zm0-4.9a1.75 1.75 0 0 0-1.2 3c.7.7 1.8.7 2.5 0s.7-1.8 0-2.5c-.4-.4-.8-.5-1.3-.5zM12 15.2c-.9 0-1.7-.3-2.3-1-.4-.4-.7-1-.9-1.5H3c-.4 0-.8-.3-.8-.8s.3-.8.8-.8h5.8c.1-.6.4-1.1.9-1.5 1.2-1.2 3.4-1.2 4.6 0 .4.4.7 1 .9 1.5H21c.4 0 .8.3.8.8s-.3.8-.8.8h-5.8c-.1.6-.4 1.1-.9 1.5-.6.7-1.4 1-2.3 1zm0-5c-.5 0-.9.2-1.2.5s-.5.8-.5 1.2.2.9.5 1.2c.7.7 1.8.7 2.5 0 .3-.3.5-.8.5-1.2s-.2-.9-.5-1.2c-.4-.3-.8-.5-1.3-.5zM7.5 8.8c-.9 0-1.7-.3-2.3-1-.4-.4-.7-1-.9-1.5H3c-.4 0-.8-.3-.8-.8s.4-.7.8-.7h1.3c.1-.6.4-1.1.9-1.5a3.3 3.3 0 0 1 4.6-.1c.4.4.7 1 .9 1.5H21c.4 0 .8.3.8.8s-.4.7-.8.7H10.7c-.1.6-.4 1.1-.9 1.5-.6.7-1.4 1.1-2.3 1.1zm0-5c-.5 0-.9.1-1.2.5s-.5.7-.5 1.2.2.9.5 1.2c.7.7 1.8.7 2.5 0 .3-.3.4-.7.4-1.2s-.1-.9-.5-1.2-.7-.5-1.2-.5z"/>
</svg>
