<svg  viewBox="0 0 16 16"  xmlns="http://www.w3.org/2000/svg">
<path d="M13.5762 5.70068L12.7562 6.93401C13.1517 7.72273 13.3453 8.59723 13.3197 9.47916C13.2941 10.3611 13.0501 11.2229 12.6095 11.9873H3.36954C2.79698 10.9941 2.55973 9.84276 2.69296 8.70406C2.82619 7.56535 3.32281 6.49989 4.10919 5.66563C4.89557 4.83136 5.92985 4.27271 7.05869 4.07248C8.18754 3.87224 9.35087 4.0411 10.3762 4.55401L11.6095 3.73401C10.3539 2.92882 8.86442 2.56801 7.37946 2.7093C5.8945 2.85059 4.49983 3.48581 3.41853 4.51335C2.33723 5.5409 1.63178 6.90139 1.41501 8.37722C1.19825 9.85305 1.4827 11.3589 2.22287 12.654C2.33921 12.8555 2.50626 13.0231 2.70742 13.14C2.90858 13.257 3.13685 13.3193 3.36954 13.3207H12.6029C12.8378 13.3216 13.0688 13.2604 13.2725 13.1434C13.4762 13.0263 13.6454 12.8575 13.7629 12.654C14.3771 11.59 14.6854 10.3769 14.6536 9.14865C14.6219 7.92044 14.2513 6.72489 13.5829 5.69401L13.5762 5.70068Z" />
<path d="M7.04954 10.2607C7.17337 10.3846 7.32042 10.483 7.48228 10.5501C7.64415 10.6172 7.81765 10.6517 7.99287 10.6517C8.16809 10.6517 8.34159 10.6172 8.50346 10.5501C8.66532 10.483 8.81237 10.3846 8.9362 10.2607L12.7095 4.60068L7.04954 8.37401C6.92557 8.49784 6.82722 8.64489 6.76012 8.80676C6.69302 8.96862 6.65849 9.14212 6.65849 9.31734C6.65849 9.49256 6.69302 9.66607 6.76012 9.82793C6.82722 9.9898 6.92557 10.1368 7.04954 10.2607Z" />
</svg>
