<svg version="1.1" id="Calque_1" xmlns="http://www.w3.org/2000/svg" x="0" y="0" viewBox="0 0 800 800" style="enable-background:new 0 0 800 800" xml:space="preserve">
  <path d="M235 651.1c-23.1 0-46.1-5.9-66.7-17.8-15.2-8.8-27.2-20.8-51.2-44.7-24-24-36-36-44.8-51.2a133.84 133.84 0 0 1 0-133.3c8.8-15.2 20.8-27.2 44.8-51.2l94.3-94.3c24-24 36-36 51.2-44.8 41.1-23.7 92.2-23.7 133.3 0 15.2 8.8 27.2 20.8 51.2 44.8 24 24 36 36 44.8 51.2 23.7 41.1 23.7 92.2 0 133.3-4.8 8.3-11 16.2-20.6 26.6a33.25 33.25 0 0 1-47.1 1.6 33.25 33.25 0 0 1-1.6-47.1c6-6.4 9.5-10.8 11.6-14.4a66.77 66.77 0 0 0 0-66.7c-4.4-7.6-15-18.2-34.2-37.4-19.2-19.2-29.8-29.8-37.4-34.2a66.77 66.77 0 0 0-66.7 0c-7.6 4.4-18.2 15-37.4 34.2L164.3 400c-19.2 19.2-29.8 29.8-34.2 37.4a66.77 66.77 0 0 0 0 66.7c4.4 7.6 15 18.2 34.2 37.4 19.2 19.2 29.8 29.8 37.4 34.2a66.77 66.77 0 0 0 66.7 0c3.7-2.1 8-5.6 14.4-11.6a33.33 33.33 0 0 1 45.5 48.7c-10.4 9.7-18.3 15.8-26.6 20.6a134.03 134.03 0 0 1-66.7 17.7zM470.7 604c-23.1 0-46.1-5.9-66.7-17.8-15.2-8.8-27.2-20.8-51.2-44.7-24-24-36-36-44.8-51.2a133.84 133.84 0 0 1 0-133.3c4.8-8.3 11-16.2 20.6-26.6a33.25 33.25 0 0 1 47.1-1.6 33.25 33.25 0 0 1 1.6 47.1c-6 6.4-9.5 10.8-11.6 14.4a66.77 66.77 0 0 0 0 66.7c4.4 7.6 15 18.2 34.2 37.4 19.2 19.2 29.8 29.8 37.4 34.2a66.77 66.77 0 0 0 66.7 0c7.6-4.4 18.2-15 37.4-34.2l94.3-94.3c19.2-19.2 29.8-29.8 34.2-37.4a66.77 66.77 0 0 0 0-66.7c-4.4-7.6-15-18.2-34.2-37.4-19.2-19.2-29.8-29.8-37.4-34.2a66.77 66.77 0 0 0-66.7 0c-3.7 2.1-8 5.6-14.4 11.6a33.33 33.33 0 0 1-45.5-48.7c10.4-9.7 18.3-15.8 26.6-20.6 41.1-23.7 92.2-23.7 133.3 0 15.2 8.8 27.2 20.8 51.2 44.8 24 24 36 36 44.8 51.2 23.7 41.1 23.7 92.2 0 133.3-8.8 15.2-20.8 27.2-44.8 51.2l-94.3 94.3c-24 24-36 36-51.2 44.8a133.39 133.39 0 0 1-66.6 17.7z"/>
</svg>
