<svg version="1.1" id="Calque_1" xmlns="http://www.w3.org/2000/svg" x="0" y="0" viewBox="0 0 800 800" style="enable-background:new 0 0 800 800" xml:space="preserve">
  <path d="M593.3 683.3H206.7c-41.3 0-64 0-85.4-10.9-18.9-9.6-34-24.8-43.7-43.7-10.9-21.4-10.9-44.1-10.9-85.4V256.7c0-41.3 0-64 10.9-85.4a99.78 99.78 0 0 1 43.7-43.7c21.4-10.9 44.1-10.9 85.4-10.9h386.7c41.3 0 64 0 85.4 10.9a99.78 99.78 0 0 1 43.7 43.7c10.9 21.4 10.9 44.1 10.9 85.4v286.7c0 41.3 0 64-10.9 85.4a99.27 99.27 0 0 1-43.7 43.7c-21.5 10.8-44.2 10.8-85.5 10.8zM300 616.7h293.3c28.9 0 48 0 55.1-3.6 6.3-3.2 11.4-8.3 14.6-14.6 3.6-7.1 3.6-26.2 3.6-55.1v-26.7H300v100zm-166.7-100v26.7c0 28.9 0 48 3.6 55.1 3.2 6.3 8.3 11.4 14.6 14.6 7.1 3.6 26.2 3.6 55.1 3.6h26.7v-100h-100zM300 450h366.7V350H300v100zm-166.7 0h100V350h-100v100zM300 283.3h366.7v-26.7c0-28.9 0-48-3.6-55.1-3.2-6.3-8.3-11.4-14.6-14.6-7.1-3.6-26.2-3.6-55.1-3.6H300v100zm-166.7 0h100v-100h-26.7c-28.9 0-48 0-55.1 3.6-6.3 3.2-11.4 8.3-14.6 14.6-3.6 7.1-3.6 26.2-3.6 55.1v26.7z"/>
</svg>
