<svg version="1.1" id="Calque_1" xmlns="http://www.w3.org/2000/svg" x="0" y="0" viewBox="0 0 800 800" style="enable-background:new 0 0 800 800" xml:space="preserve">
  <path d="M733.3 200H66.7c-18.4 0-33.3 14.9-33.3 33.3v100c0 18.4 14.9 33.3 33.3 33.3h666.7c18.4 0 33.3-14.9 33.3-33.3v-100c-.1-18.4-15-33.3-33.4-33.3zm0 133.3H66.7v-100h666.7v100h-.1m0 233.4H66.7c-18.4 0-33.3 14.9-33.3 33.3v100c0 18.4 14.9 33.3 33.3 33.3h666.7c18.4 0 33.3-14.9 33.3-33.3V600c-.1-18.4-15-33.3-33.4-33.3zm0 133.3H66.7V600h666.7v100h-.1m-400-233.3V500H66.7v-33.3h266.6zM66.7 100h266.7v33.3H66.7V100z"/>
</svg>
