<svg viewBox="0 -2 48 48" xmlns="http://www.w3.org/2000/svg">
  <path id="consultation" d="M440.62 340.92a1 1 0 0 1-.62-.92v-32a5 5 0 0 1 5-5h1v-1a5 5 0 0 1 5-5h32a5 5 0 0 1 5 5v22a5 5 0 0 1-5 5h-1v1a5 5 0 0 1-5 5h-29.59l-5.7 5.7a1 1 0 0 1-.71.3.98.98 0 0 1-.38-.08ZM442 308v29.59l4.3-4.3a1 1 0 0 1 .7-.29h30a3 3 0 0 0 3-3v-22a3 3 0 0 0-3-3h-32a3 3 0 0 0-3 3Zm5-6v1h30a5 5 0 0 1 5 5v20h1a4 4 0 0 0 4-4v-22a4 4 0 0 0-4-4h-32a4 4 0 0 0-4 4Zm4 21a1 1 0 0 1 0-2h20a1 1 0 0 1 0 2Zm0-6a1 1 0 1 1 0-2h20a1 1 0 0 1 0 2Z" transform="translate(-440 -297)"/>
</svg>
