<svg version="1.1" id="Calque_1" xmlns="http://www.w3.org/2000/svg" x="0" y="0" viewBox="0 0 800 800" style="enable-background:new 0 0 800 800" xml:space="preserve">
  <path d="M533.3 766.7c-48 0-94.4-14.7-133.3-41.8-38.8 27.2-85 41.8-133.4 41.8-62.3 0-120.9-24.3-165-68.3-44.1-44.1-68.3-102.7-68.3-165 0-93.3 55.9-176.9 139.4-213.6-4-17.2-6-35-6-53 0-62.3 24.3-120.9 68.3-165 44.1-44.1 102.7-68.3 165-68.3s120.9 24.3 165 68.3c44.1 44.1 68.3 102.7 68.3 165 0 18.1-2 35.8-6 53 83.5 36.8 139.4 120.3 139.4 213.6 0 62.3-24.3 120.9-68.3 165-44.1 44-102.7 68.3-165.1 68.3zm-83.3-89a166.5 166.5 0 0 0 83.3 22.3c91.9 0 166.7-74.8 166.7-166.7 0-65.7-38.8-124.6-97-151.5-10.3 18-23 34.7-38 49.8a233.62 233.62 0 0 1-71 48.7c4 17.3 6 35 6 53 0 53.1-17.6 103.4-50 144.4zM197 381.9c-58.2 26.8-97 85.7-97 151.5 0 91.9 74.8 166.7 166.7 166.7 91.9 0 166.7-74.8 166.7-166.7 0-11.9-1.2-23.7-3.7-35.2-9.7 1.2-19.6 1.9-29.6 1.9-62.3 0-120.9-24.3-165-68.3a235.91 235.91 0 0 1-38.1-49.9zM400 100c-91.9 0-166.7 74.8-166.7 166.7 0 91.9 74.8 166.7 166.7 166.7 91.9 0 166.7-74.8 166.7-166.7 0-91.9-74.8-166.7-166.7-166.7z"/>
</svg>
