<svg version="1.1" id="Calque_1" xmlns="http://www.w3.org/2000/svg" x="0" y="0" viewBox="0 0 800 800" style="enable-background:new 0 0 800 800" xml:space="preserve">
      <path d="M762 802H522c-22.1 0-40-17.9-40-40s17.9-40 40-40h200V522c0-22.1 17.9-40 40-40s40 17.9 40 40v240c0 22.1-17.9 40-40 40zm-480 0H42c-22.1 0-40-17.9-40-40V522c0-22.1 17.9-40 40-40s40 17.9 40 40v200h200c22.1 0 40 17.9 40 40s-17.9 40-40 40zm480-480c-22.1 0-40-17.9-40-40V82H522c-22.1 0-40-17.9-40-40s17.9-40 40-40h240c22.1 0 40 17.9 40 40v240c0 22.1-17.9 40-40 40zm-720 0c-22.1 0-40-17.9-40-40V42C2 19.9 19.9 2 42 2h240c22.1 0 40 17.9 40 40s-17.9 40-40 40H82v200c0 22.1-17.9 40-40 40z"/>
</svg>
