<svg version="1.1" id="Calque_1" xmlns="http://www.w3.org/2000/svg" x="0" y="0" viewBox="0 0 800 800" style="enable-background:new 0 0 800 800" xml:space="preserve">
  <path d="M560 700H240c-41.3 0-64 0-85.4-10.9-18.9-9.6-34-24.8-43.7-43.7-4.7-9.1-7.6-19.2-9.1-31.5 0-.3-.1-.6-.1-.8-1.7-13.9-1.7-30.3-1.7-53V240c0-41.3 0-64 10.9-85.4a99.78 99.78 0 0 1 43.7-43.7C176 100 198.7 100 240 100h320c41.3 0 64 0 85.4 10.9a99.78 99.78 0 0 1 43.7 43.7C700 176 700 198.7 700 240v320c0 41.3 0 64-10.9 85.4-9.6 18.9-24.8 34-43.7 43.7-9.2 4.7-19.3 7.6-31.9 9.2-.2 0-.5.1-.7.1C599 700 582.6 700 560 700zm-387.5-81.1c3.1 4.6 7.3 8.2 12.3 10.8 7.1 3.6 26.2 3.6 55.1 3.6h290.3l-78.4-78.5-55.5-55c-20.8-20.6-34.5-34.2-42.2-36.7-6.8-2.2-14-2.1-20.8.2-7.6 2.6-21.1 16.5-41.4 37.6l-.6.6-118.8 117.4zm350.2-87.5 96 96.2c4.7-3.1 8.4-7.4 11-12.5 3.5-6.8 3.6-24.7 3.6-51.6l-18.2-18.3-.4-.4c-20.3-21.1-33.8-35.1-41.4-37.7-6.8-2.3-14-2.4-20.8-.2-6 1.9-15.8 10.8-29.8 24.5zM240 166.7c-28.9 0-48 0-55.1 3.6-6.3 3.2-11.4 8.3-14.6 14.6-3.6 7.1-3.6 26.2-3.6 55.1v291l77.6-76.7c28.8-29.9 44.8-46.3 67.6-54.1 20.3-6.9 41.9-7.1 62.3-.7 23.1 7.3 39.4 23.5 69.1 52.9l32.2 31.9c22.4-22 37.3-34.7 57-41 20.5-6.5 42-6.2 62.4.7 13.9 4.7 25.2 12.7 38.5 24.9V240c0-28.9 0-48-3.6-55.1-3.2-6.3-8.3-11.4-14.6-14.6-7.1-3.6-26.2-3.6-55.1-3.6H240zM500 400c-55.1 0-100-44.9-100-100s44.9-100 100-100 100 44.9 100 100-44.9 100-100 100zm0-133.3c-18.4 0-33.3 15-33.3 33.3s15 33.3 33.3 33.3 33.3-15 33.3-33.3-14.9-33.3-33.3-33.3z"/>
</svg>
