<svg version="1.1" id="Calque_1" xmlns="http://www.w3.org/2000/svg" x="0" y="0" viewBox="0 0 800 800" style="enable-background:new 0 0 800 800" xml:space="preserve">
  <path d="M566.7 733.3H233.3c-91.9 0-166.7-74.8-166.7-166.7V233.3c0-91.9 74.8-166.7 166.7-166.7h333.3c91.9 0 166.7 74.8 166.7 166.7v333.3c0 92-74.7 166.7-166.6 166.7zm-333.4-600c-55.1 0-100 44.9-100 100v333.3c0 55.1 44.9 100 100 100h333.3c55.1 0 100-44.9 100-100V233.3c0-55.1-44.9-100-100-100H233.3z"/>
  <path d="M396.4 565.5h-.6a49.8 49.8 0 0 1-44.7-28.6l-10.4-22c-9.9-20.8-26.8-37.7-47.6-47.6l-22-10.4a49.8 49.8 0 0 1-28.6-44.7 49.86 49.86 0 0 1 27.6-45.3l216.4-108.2 14.9 29.8-14.9-29.8c18-9 39.6-5.5 53.9 8.7a46.67 46.67 0 0 1 8.7 53.9l-108 216.5a49.81 49.81 0 0 1-44.7 27.7zm-66-154c27.9 15.3 51 38.3 66.2 66.2l66.2-132.5-132.4 66.3zm186.1-93.1-.1.1.1-.1z"/>
</svg>
