<svg version="1.1" id="Calque_1" xmlns="http://www.w3.org/2000/svg" x="0" y="0" viewBox="0 0 800 800" style="enable-background:new 0 0 800 800" xml:space="preserve">
  <path d="M566.6 733.3c-5.8 0-11.7-1.5-17.1-4.8l-116.2-69.7V700c0 18.4-14.9 33.3-33.3 33.3s-33.3-14.9-33.3-33.3v-41.1l-116.2 69.7a33.23 33.23 0 0 1-45.7-11.4 33.23 33.23 0 0 1 11.4-45.7l150.5-90.3v-47.8h-93.3c-41.3 0-64 0-85.4-10.9-18.9-9.6-34-24.8-43.7-43.7-10.9-21.4-10.9-44.1-10.9-85.4v-260H100c-18.4 0-33.3-14.9-33.3-33.3S81.6 66.7 100 66.7h600c18.4 0 33.3 14.9 33.3 33.3s-14.9 33.3-33.3 33.3h-33.3v260c0 41.3 0 64-10.9 85.4a99.27 99.27 0 0 1-43.7 43.7c-21.4 10.9-44.1 10.9-85.4 10.9h-93.3v47.8l150.5 90.3a33.25 33.25 0 0 1 11.4 45.7 33.25 33.25 0 0 1-28.7 16.2zM400 466.7h126.7c28.9 0 48 0 55.1-3.6 6.3-3.2 11.3-8.3 14.6-14.6 3.6-7.1 3.6-26.2 3.6-55.1v-260H200v260c0 28.9 0 48 3.6 55.1 3.2 6.3 8.3 11.4 14.6 14.6 7.1 3.6 26.2 3.6 55.1 3.6H400zm33.3-100a33.7 33.7 0 0 1-27.8-14.9l-44.1-66.2-71.2 71.2a33.32 33.32 0 0 1-47.1-47.1l100-100c7.1-7.1 16.9-10.6 26.9-9.6 9.9 1 18.9 6.4 24.5 14.7l44.1 66.2 71.2-71.2a33.32 33.32 0 0 1 47.1 47.1l-100 100c-6.3 6.3-14.8 9.8-23.6 9.8z"/>
</svg>
