<svg version="1.1" id="Calque_1" xmlns="http://www.w3.org/2000/svg" x="0" y="0" viewBox="0 0 15 15" style="enable-background:new 0 0 15 15" xml:space="preserve">
  <path d="M7.5 4.3c2.2 0 4.2 1.2 5.1 3.2-.3.7-.8 1.3-1.4 1.8l.8.8a7 7 0 0 0 1.9-2.6c-1-2.6-3.5-4.4-6.4-4.4-.7 0-1.5.1-2.1.3l1 1c.3-.1.7-.1 1.1-.1zm-.6.6 1.2 1.2c.3.1.6.4.7.7L10 8.1c0-.2.1-.4.1-.6 0-1.4-1.2-2.6-2.6-2.6-.2-.1-.4 0-.6 0zM1.7 3l1.6 1.6c-1 .7-1.7 1.7-2.2 2.9a6.85 6.85 0 0 0 8.9 3.9l2 2 .8-.8L2.5 2.2l-.8.8zM6 7.4l1.5 1.5h-.1C6.7 8.9 6 8.3 6 7.4zm-1.9-2 1 1c-.1.3-.2.7-.2 1.1 0 1.4 1.2 2.6 2.6 2.6.4 0 .7-.1 1-.2l.6.6c-.5.1-1 .2-1.6.2-2.2 0-4.2-1.2-5.1-3.2.4-.9 1-1.6 1.7-2.1z"/>
</svg>
